<?xml version="1.0" standalone="no"?>
<!DOCTYPE svg PUBLIC "-//W3C//DTD SVG 20010904//EN"
 "http://www.w3.org/TR/2001/REC-SVG-20010904/DTD/svg10.dtd">
<svg version="1.0" xmlns="http://www.w3.org/2000/svg"
 width="225.000000pt" height="225.000000pt" viewBox="0 0 225.000000 225.000000"
 preserveAspectRatio="xMidYMid meet">

<g transform="translate(0.000000,225.000000) scale(0.100000,-0.100000)"
fill="#000000" stroke="none">
<path d="M1530 2150 c-9 -6 -10 -10 -3 -10 6 0 15 5 18 10 8 12 4 12 -15 0z"/>
<path d="M1520 2100 c-17 -17 -20 -31 -18 -70 2 -33 8 -50 16 -50 9 0 10 5 2
19 -24 46 -6 97 40 114 12 4 11 6 -2 6 -10 1 -27 -8 -38 -19z"/>
<path d="M1590 2113 c8 -3 24 -13 35 -22 20 -16 20 -16 1 7 -11 12 -26 22 -35
21 -14 0 -14 -1 -1 -6z"/>
<path d="M1715 2050 c-3 -6 1 -7 9 -4 18 7 21 14 7 14 -6 0 -13 -4 -16 -10z"/>
<path d="M1750 2030 c0 -5 5 -10 10 -10 6 0 10 5 10 10 0 6 -4 10 -10 10 -5 0
-10 -4 -10 -10z"/>
<path d="M1760 2007 c0 -2 14 -43 30 -92 39 -116 39 -128 -5 -144 -19 -7 -35
-16 -35 -21 0 -12 63 12 76 30 14 18 13 24 -27 152 -13 43 -27 78 -31 78 -5 0
-8 -1 -8 -3z"/>
<path d="M1435 1950 c-4 -6 -102 -10 -262 -10 l-255 0 -34 -34 -34 -34 0 -101
c0 -91 -2 -100 -17 -94 -10 3 -26 13 -36 21 -14 12 -22 13 -43 4 -13 -7 -36
-12 -50 -12 -18 0 -29 -9 -41 -35 -11 -24 -22 -34 -31 -30 -8 3 -26 -2 -40
-11 -21 -14 -24 -21 -19 -56 4 -31 1 -44 -14 -59 -10 -10 -24 -19 -29 -19 -5
0 -10 -9 -10 -20 0 -13 7 -20 19 -20 10 0 21 -9 24 -20 6 -25 31 -26 49 -2 7
9 22 17 33 17 13 0 21 8 23 21 2 16 9 20 30 16 18 -2 37 4 55 18 l28 22 -21
20 c-24 23 -22 43 6 43 10 0 20 8 22 18 2 9 11 17 21 17 9 0 22 5 29 12 9 9
12 -2 13 -52 0 -36 6 -83 13 -105 12 -35 13 -15 15 175 l1 215 26 23 c23 20
35 22 107 20 73 -3 82 -5 85 -23 8 -41 21 -45 128 -45 l103 0 9 33 c8 31 10
32 67 35 67 4 107 -10 124 -42 10 -17 12 -175 9 -657 -2 -349 -7 -642 -12
-652 -22 -47 -118 -56 -428 -39 -76 5 -114 4 -110 -3 7 -10 8 -16 11 -35 1 -6
92 -10 252 -10 l251 0 29 29 c26 26 29 36 29 93 0 107 11 168 29 168 12 0 13
2 3 8 -14 9 -3 48 44 152 l26 58 64 12 c35 7 73 10 84 7 11 -3 18 -1 14 4 -7
12 -60 11 -107 -2 -22 -6 -41 -9 -43 -7 -2 3 10 27 27 54 23 35 26 44 11 30
-22 -20 -102 -176 -122 -239 -7 -21 -14 -36 -17 -34 -8 9 -3 881 6 890 5 5 15
9 22 11 8 1 23 8 34 15 17 11 17 12 2 7 -11 -3 -30 -9 -43 -12 l-25 -6 4 89
c2 50 7 96 11 104 4 8 1 6 -7 -3 -13 -17 -15 -16 -25 6 -6 14 -26 29 -46 36
-20 6 -34 16 -31 21 4 5 1 9 -4 9 -6 0 -11 -4 -11 -10 0 -5 -5 -10 -11 -10 -5
0 -7 5 -4 10 3 6 4 10 1 10 -3 0 -8 -4 -11 -10z m-775 -414 c0 -8 3 -23 6 -33
6 -16 5 -16 -9 2 -19 23 -22 45 -7 45 6 0 10 -6 10 -14z"/>
<path d="M1580 1841 c0 -6 4 -13 10 -16 6 -3 7 1 4 9 -7 18 -14 21 -14 7z"/>
<path d="M1621 1803 c7 -12 15 -20 18 -17 3 2 -3 12 -13 22 -17 16 -18 16 -5
-5z"/>
<path d="M1640 1760 c0 -6 7 -10 15 -10 8 0 15 2 15 4 0 2 -7 6 -15 10 -8 3
-15 1 -15 -4z"/>
<path d="M1687 1734 c-16 -9 -26 -18 -23 -22 4 -3 12 0 18 6 7 7 20 12 29 12
10 0 21 5 24 10 9 15 -16 11 -48 -6z"/>
<path d="M1195 1690 c-3 -5 -1 -10 4 -10 6 0 11 5 11 10 0 6 -2 10 -4 10 -3 0
-8 -4 -11 -10z"/>
<path d="M1160 1639 c0 -5 9 -9 20 -9 11 0 20 2 20 4 0 2 -9 6 -20 9 -11 3
-20 1 -20 -4z"/>
<path d="M1298 1633 c6 -2 18 -2 25 0 6 3 1 5 -13 5 -14 0 -19 -2 -12 -5z"/>
<path d="M975 1520 c3 -5 8 -10 11 -10 2 0 4 5 4 10 0 6 -5 10 -11 10 -5 0 -7
-4 -4 -10z"/>
<path d="M1046 1522 c-2 -4 7 -8 20 -8 13 -1 24 1 24 5 0 9 -38 12 -44 3z"/>
<path d="M1000 1430 c0 -6 45 -10 115 -10 70 0 115 4 115 10 0 6 -45 10 -115
10 -70 0 -115 -4 -115 -10z"/>
<path d="M654 1423 c-31 -6 -144 -102 -178 -151 -36 -52 -30 -79 24 -117 22
-15 42 -26 43 -24 41 53 47 68 31 77 -13 7 -11 13 17 37 l34 28 6 -24 c4 -13
7 -43 8 -66 1 -41 3 -43 31 -43 17 0 33 -1 38 -2 4 -1 29 -5 55 -8 l48 -7 -7
43 c-4 30 -2 49 9 64 26 37 37 4 32 -98 -3 -63 1 -104 10 -130 13 -35 14 -32
14 76 l1 113 30 -23 c24 -17 35 -20 48 -12 36 23 26 57 -48 155 -39 52 -81 99
-93 106 -21 12 -108 15 -153 6z"/>
<path d="M348 1377 c-3 -19 -2 -25 4 -19 6 6 8 18 6 28 -3 14 -5 12 -10 -9z"/>
<path d="M402 1330 c0 -19 2 -27 5 -17 2 9 2 25 0 35 -3 9 -5 1 -5 -18z"/>
<path d="M310 1321 c0 -6 4 -13 10 -16 6 -3 7 1 4 9 -7 18 -14 21 -14 7z"/>
<path d="M1001 1216 c7 -7 219 -9 226 -2 4 3 -47 6 -112 6 -65 0 -116 -2 -114
-4z"/>
<path d="M1776 1150 c-25 -27 -46 -52 -46 -56 0 -4 1 -5 3 -3 2 2 25 28 52 57
26 28 45 52 43 52 -3 0 -26 -22 -52 -50z"/>
<path d="M1630 1105 c0 -14 2 -25 4 -25 2 0 6 11 8 25 3 14 1 25 -3 25 -5 0
-9 -11 -9 -25z"/>
<path d="M1028 1073 c7 -3 16 -2 19 1 4 3 -2 6 -13 5 -11 0 -14 -3 -6 -6z"/>
<path d="M1643 1035 c0 -22 2 -30 4 -17 2 12 2 30 0 40 -3 9 -5 -1 -4 -23z"/>
<path d="M1825 1010 c3 -5 8 -10 11 -10 2 0 4 5 4 10 0 6 -5 10 -11 10 -5 0
-7 -4 -4 -10z"/>
<path d="M1667 788 c-32 -11 -57 -22 -55 -24 5 -4 138 35 138 41 0 9 -24 4
-83 -17z"/>
<path d="M1789 773 c-13 -16 -12 -17 4 -4 16 13 21 21 13 21 -2 0 -10 -8 -17
-17z"/>
<path d="M778 620 c3 -61 -1 -137 -8 -187 -13 -84 -8 -110 18 -94 33 20 42
170 16 284 -25 110 -32 109 -26 -3z"/>
<path d="M1580 689 c0 -5 11 -9 25 -9 14 0 25 2 25 4 0 2 -11 6 -25 8 -14 3
-25 1 -25 -3z"/>
<path d="M591 574 c0 -11 3 -14 6 -6 3 7 2 16 -1 19 -3 4 -6 -2 -5 -13z"/>
<path d="M602 340 c0 -14 2 -19 5 -12 2 6 2 18 0 25 -3 6 -5 1 -5 -13z"/>
<path d="M996 305 c-11 -8 -15 -15 -9 -15 6 0 16 7 23 15 16 19 11 19 -14 0z"/>
<path d="M844 248 l-19 -23 23 19 c21 18 27 26 19 26 -2 0 -12 -10 -23 -22z"/>
<path d="M608 228 c5 -5 16 -8 23 -6 8 3 3 7 -10 11 -17 4 -21 3 -13 -5z"/>
<path d="M661 94 c0 -11 3 -14 6 -6 3 7 2 16 -1 19 -3 4 -6 -2 -5 -13z"/>
<path d="M981 80 c-9 -5 -4 -7 13 -7 29 0 32 2 13 10 -8 3 -20 2 -26 -3z"/>
</g>
</svg>
